<?xml version="1.0" encoding="UTF-8" standalone="no"?>
<!-- Created with Inkscape (http://www.inkscape.org/) -->

<svg
    xmlns:dc="http://purl.org/dc/elements/1.1/"
    xmlns:cc="http://creativecommons.org/ns#"
    xmlns:rdf="http://www.w3.org/1999/02/22-rdf-syntax-ns#"
    xmlns:svg="http://www.w3.org/2000/svg"
    xmlns="http://www.w3.org/2000/svg"
    version="1.1">

  <!-- Close -->
  <symbol
      width="22.86124"
      height="22.83745"
      id="Icon--close">
    <g>
      <rect
	  style="fill:#000000;fill-opacity:1;stroke:#000000;stroke-width:0.26458332;stroke-opacity:1"
	  id="rect815"
	  width="22.734121"
	  height="1.9139613"
	  x="2.0306416"
	  y="-0.94113922"
	  transform="rotate(45)" />
      <rect
	  transform="rotate(135)"
	  y="-14.354684"
	  x="-11.351221"
	  height="1.9139613"
	  width="22.734121"
	  id="rect4522"
	  style="fill:#000000;fill-opacity:1;stroke:#000000;stroke-width:0.26458332;stroke-opacity:1" />
    </g>
  </symbol>
  
  <!-- Pause Button -->
  <symbol id="Icon--pause" xmlns="http://www.w3.org/2000/svg"
	  x="0px"
	  y="0px"
	  viewBox="0 0 1024 721"
	  enable-background="new 0 0 1024 721"
	  xml:space="preserve">
    <g
	id="Lozenge">
      <path
	  style="fill:#7da30b"
	  id="path3765"
	  d="m 1013,156.3 c 0,0 -10,-70.4 -40.6,-101.4 C 933.6,14.2 890,14 870.1,11.6 727.1,1.3 512.7,1.3 512.7,1.3 h -0.4 c 0,0 -214.4,0 -357.4,10.3 C 135,14 91.4,14.2 52.6,54.9 22,85.9 12,156.3 12,156.3 c 0,0 -10.2,82.6 -10.2,165.3 v 77.5 c 0,82.7 10.2,165.3 10.2,165.3 0,0 10,70.4 40.6,101.4 38.9,40.7 89.9,39.4 112.6,43.7 81.7,7.8 347.3,10.3 347.3,10.3 0,0 214.6,-0.3 357.6,-10.7 20,-2.4 63.5,-2.6 102.3,-43.3 30.6,-31 40.6,-101.4 40.6,-101.4 0,0 10.2,-82.7 10.2,-165.3 v -77.5 c 0,-82.7 -10.2,-165.3 -10.2,-165.3 z" />
      <path fill="#000000"
	    d="m 400.11542,220.06105 c 27.74103,0 55.48205,0 83.22308,0 0,90.95857 0,181.91713 0,272.8757 -27.74103,0 -55.48205,0 -83.22308,0 0,-90.95857 0,-181.91713 0,-272.8757 z"
	    id="rect3799"/>
      <path id="path4883" fill="#000000"
	    d="m 516.11542,220.06105 c 27.74103,0 55.48205,0 83.22308,0 0,90.95857 0,181.91713 0,272.8757 -27.74103,0 -55.48205,0 -83.22308,0 0,-90.95857 0,-181.91713 0,-272.8757 z" />
    </g>
  </symbol>

  <!--Wrong-->
  <symbol id="Icon--wrong" xmlns="http://www.w3.org/2000/svg"
	  viewBox="0 0 30 30"
	  >
    <g transform="translate(-87.737006,-107.56698)">
      <circle
	  r="12.561667"
	  cy="120.60211"
	  cx="100.76061"
	  id="path815"
	  style="fill:#ffffff;fill-opacity:1;stroke:none;stroke-width:0.26458332;stroke-opacity:1" />
      <rect
	  transform="rotate(-45.187468)"
	  y="149.53134"
	  x="-16.546648"
	  height="13.898015"
	  width="4.0090427"
	  id="rect817"
	  style="fill:#f70000;fill-opacity:1;stroke:none;stroke-width:0.26458332;stroke-opacity:1" />
      <rect
	  style="fill:#ff0505;fill-opacity:1;stroke:none;stroke-width:0.26458332;stroke-opacity:1"
	  id="rect819"
	  width="4.0090427"
	  height="13.898015"
	  x="154.47581"
	  y="7.5931244"
	  transform="rotate(44.812532)" />
    </g>
  </symbol>

  <!--Correct-->
  <symbol id="Icon--correct" xmlns="http://www.w3.org/2000/svg"
	  viewBox="0 0 30 30"
	  >
    <g>
      <circle
	  r="12.561667"
	  cy="13.002535"
	  cx="12.881939"
	  id="path815"
	  style="fill:#ffffff;fill-opacity:1;stroke:none;stroke-width:0.26458332;stroke-opacity:1" />
      <g
	  id="g4526"
	  transform="translate(-91.235733,-107.5998)"
	  style="fill:#7da30b;fill-opacity:1">
	<rect
            style="fill:#7da30b;fill-opacity:1;stroke:none;stroke-width:0.26458332;stroke-opacity:1"
            id="rect817"
            width="4.0096588"
            height="9.462513"
            x="-17.762238"
            y="152.77635"
            transform="rotate(-45.187468)" />
	<rect
            transform="rotate(44.812532)"
            y="3.8636138"
            x="158.22981"
            height="13.898015"
            width="4.0090427"
            id="rect819"
            style="fill:#7da30b;fill-opacity:1;stroke:none;stroke-width:0.26458332;stroke-opacity:1" />
      </g>
    </g>
  </symbol>
  
</svg>
